<svg width="533" height="167" viewBox="0 0 533 167" fill="none" xmlns="http://www.w3.org/2000/svg">
<path d="M3.456 139.176C2.77333 137.384 2.21867 135.123 1.792 132.392C1.36533 129.661 1.10933 126.845 1.024 123.944C1.024 120.957 1.10933 118.099 1.28 115.368C1.536 112.637 1.96267 110.376 2.56 108.584C3.92533 108.072 5.376 107.219 6.912 106.024C8.448 104.829 9.89867 102.867 11.264 100.136C12.7147 97.4053 13.824 93.5653 14.592 88.616C15.2747 84.52 15.4453 81.192 15.104 78.632C14.7627 75.9867 14.1227 73.9813 13.184 72.616C12.3307 71.1653 11.392 70.184 10.368 69.672C9.42933 69.0747 8.61867 68.776 7.936 68.776C7.168 67.24 6.61333 65.1493 6.272 62.504C5.93067 59.8587 5.76 57.0427 5.76 54.056C5.84533 50.984 6.10133 48.04 6.528 45.224C6.95467 42.3227 7.59467 39.848 8.448 37.8C11.6907 38.1413 15.616 38.5253 20.224 38.952C24.9173 39.3787 30.208 39.592 36.096 39.592C40.8747 39.592 45.9093 39.5067 51.2 39.336C56.576 39.1653 61.7813 38.952 66.816 38.696C71.8507 38.44 76.2453 38.1413 80 37.8C79.488 41.0427 79.36 45.096 79.616 49.96C79.9573 54.824 81.28 59.5173 83.584 64.04C83.6693 59.3467 83.7973 54.6533 83.968 49.96C84.224 45.1813 84.6507 41.128 85.248 37.8C88.832 37.9707 92.2027 38.2267 95.36 38.568C98.5173 38.824 101.803 39.08 105.216 39.336C108.715 39.5067 112.683 39.592 117.12 39.592C120.021 39.592 123.349 39.5067 127.104 39.336C130.859 39.08 134.485 38.824 137.984 38.568C141.483 38.2267 144.299 37.9707 146.432 37.8C147.285 39.848 147.925 42.3227 148.352 45.224C148.779 48.04 148.992 50.984 148.992 54.056C149.077 57.0427 148.949 59.8587 148.608 62.504C148.267 65.1493 147.712 67.24 146.944 68.776C146.347 68.776 145.536 69.0747 144.512 69.672C143.573 70.184 142.677 71.1653 141.824 72.616C141.056 73.9813 140.587 75.944 140.416 78.504C140.245 80.9787 140.587 84.264 141.44 88.36C142.549 93.3093 143.744 97.192 145.024 100.008C146.389 102.739 147.755 104.744 149.12 106.024C150.571 107.219 151.979 108.072 153.344 108.584C153.941 110.376 154.325 112.637 154.496 115.368C154.752 118.099 154.837 120.957 154.752 123.944C154.752 126.845 154.539 129.661 154.112 132.392C153.685 135.123 153.131 137.384 152.448 139.176C148.949 138.835 144.683 138.408 139.648 137.896C134.699 137.384 128.427 137.128 120.832 137.128C113.579 137.128 106.667 137.384 100.096 137.896C93.6107 138.408 88.6187 138.835 85.12 139.176C84.7787 137.384 84.48 135.123 84.224 132.392C83.968 129.661 83.7973 126.845 83.712 123.944C83.6267 120.957 83.6267 118.099 83.712 115.368C83.7973 112.637 83.968 110.376 84.224 108.584H88.704L87.424 94.248L79.872 116.008L55.04 105.128L53.504 108.584L67.456 114.856C69.4187 115.709 71.296 116.648 73.088 117.672C74.88 118.611 76.416 119.891 77.696 121.512C78.976 123.133 79.8293 125.352 80.256 128.168C80.768 130.899 80.6827 134.568 80 139.176C78.3787 139.005 76.1173 138.792 73.216 138.536C70.3147 138.365 67.072 138.152 63.488 137.896C59.9893 137.725 56.3627 137.555 52.608 137.384C48.9387 137.213 45.4827 137.128 42.24 137.128C32.768 137.128 24.7467 137.384 18.176 137.896C11.6907 138.408 6.784 138.835 3.456 139.176ZM207.715 141.352C191.502 141.352 179 138.152 170.211 131.752C161.507 125.352 157.155 116.392 157.155 104.872C157.155 100.179 158.008 95.8267 159.715 91.816C161.507 87.8053 164.323 84.5627 168.163 82.088C172.003 79.528 176.995 78.248 183.139 78.248C185.358 78.248 187.704 78.4613 190.179 78.888C192.654 79.2293 195.043 80.168 197.347 81.704C199.736 83.1547 201.87 85.5013 203.747 88.744C205.71 91.9867 207.203 96.424 208.227 102.056L211.683 101.416C210.83 95.016 208.696 89.384 205.283 84.52C201.955 79.5707 197.39 75.7307 191.587 73C185.784 70.184 178.787 68.776 170.595 68.776C169.827 67.24 169.23 65.1493 168.803 62.504C168.376 59.8587 168.163 57.0427 168.163 54.056C168.248 50.984 168.504 48.04 168.931 45.224C169.443 42.3227 170.168 39.848 171.107 37.8C185.358 38.568 196.963 39.08 205.923 39.336C214.968 39.592 222.392 39.72 228.195 39.72C232.888 39.72 237.582 39.6347 242.275 39.464C246.968 39.208 251.32 38.9093 255.331 38.568C259.427 38.2267 262.755 37.9707 265.315 37.8C266.168 39.848 266.808 42.3227 267.235 45.224C267.662 48.04 267.875 50.984 267.875 54.056C267.875 57.128 267.704 59.9867 267.363 62.632C267.022 65.2773 266.467 67.368 265.699 68.904C264.419 68.904 263.139 69.2453 261.859 69.928C260.579 70.6107 259.512 71.976 258.659 74.024C257.806 75.9867 257.379 79.0587 257.379 83.24C257.379 87.2507 257.635 91.048 258.147 94.632C258.744 98.216 259.043 101.587 259.043 104.744C259.043 113.448 256.952 120.488 252.771 125.864C248.675 131.24 242.787 135.165 235.107 137.64C227.427 140.115 218.296 141.352 207.715 141.352ZM336.075 140.072C329.248 140.072 323.275 139.944 318.155 139.688C313.035 139.517 308.214 139.304 303.691 139.048C299.168 138.877 294.475 138.749 289.611 138.664C284.747 138.664 279.158 138.792 272.843 139.048C272.16 137.256 271.606 135.037 271.179 132.392C270.752 129.661 270.496 126.803 270.411 123.816C270.411 120.829 270.496 118.013 270.667 115.368C270.923 112.637 271.35 110.376 271.947 108.584C273.739 108.072 275.275 107.133 276.555 105.768C277.835 104.317 278.816 102.099 279.499 99.112C280.182 96.1253 280.523 92.072 280.523 86.952C280.523 82.088 280.096 78.376 279.243 75.816C278.475 73.256 277.451 71.464 276.171 70.44C274.891 69.416 273.483 68.776 271.947 68.52C271.094 66.0453 270.496 62.9307 270.155 59.176C269.814 55.336 269.814 51.4533 270.155 47.528C270.582 43.5173 271.35 40.104 272.459 37.288C277.92 37.8 283.083 38.056 287.947 38.056C292.896 38.056 297.974 37.9707 303.179 37.8C308.384 37.544 314.059 37.3307 320.203 37.16C326.347 36.904 333.387 36.776 341.323 36.776C359.414 36.776 373.238 40.5307 382.795 48.04C392.438 55.5493 397.259 67.5813 397.259 84.136C397.259 89.6827 396.747 95.1867 395.723 100.648C394.784 106.024 393.035 111.101 390.475 115.88C388 120.573 384.459 124.755 379.851 128.424C375.243 132.008 369.355 134.867 362.187 137C355.104 139.048 346.4 140.072 336.075 140.072ZM330.315 95.912H338.123V79.4H330.315V95.912ZM399.596 139.176C398.913 137.384 398.359 135.123 397.932 132.392C397.505 129.661 397.249 126.845 397.164 123.944C397.164 120.957 397.249 118.099 397.42 115.368C397.676 112.637 398.103 110.376 398.7 108.584C400.065 108.072 401.388 107.219 402.668 106.024C403.948 104.744 405.015 102.739 405.868 100.008C406.721 97.192 407.148 93.2667 407.148 88.232C407.148 82.7707 406.636 78.6747 405.612 75.944C404.673 73.128 403.521 71.2507 402.156 70.312C400.876 69.288 399.724 68.776 398.7 68.776C397.932 67.24 397.377 65.1493 397.036 62.504C396.695 59.8587 396.524 57.0427 396.524 54.056C396.609 50.984 396.865 48.04 397.292 45.224C397.719 42.3227 398.359 39.848 399.212 37.8C401.601 37.9707 404.375 38.2267 407.532 38.568C410.775 38.824 414.06 39.08 417.388 39.336C420.801 39.5067 423.959 39.592 426.86 39.592C433.089 39.592 439.617 39.464 446.444 39.208C453.356 38.8667 461.377 38.3973 470.508 37.8C469.143 43.432 468.588 48.04 468.844 51.624C469.185 55.208 470.764 58.3227 473.58 60.968C476.396 63.6133 480.748 66.344 486.636 69.16L488.3 65.832C482.924 63.272 478.999 60.8827 476.524 58.664C474.135 56.36 472.855 53.6293 472.684 50.472C472.513 47.2293 473.068 43.0053 474.348 37.8C478.017 37.8853 482.156 38.2267 486.764 38.824C491.457 39.4213 496.791 39.72 502.764 39.72C508.055 39.72 512.833 39.5067 517.1 39.08C521.452 38.568 525.377 38.1413 528.876 37.8C529.644 39.848 530.241 42.3227 530.668 45.224C531.095 48.04 531.308 50.984 531.308 54.056C531.308 57.128 531.137 59.9867 530.796 62.632C530.455 65.2773 529.943 67.368 529.26 68.904C528.236 68.904 527.041 69.416 525.676 70.44C524.396 71.3787 523.287 73.2133 522.348 75.944C521.409 78.6747 520.94 82.7707 520.94 88.232C520.94 93.2667 521.367 97.192 522.22 100.008C523.073 102.739 524.14 104.744 525.42 106.024C526.7 107.219 528.023 108.072 529.388 108.584C529.985 110.376 530.369 112.637 530.54 115.368C530.796 118.099 530.881 120.957 530.796 123.944C530.796 126.845 530.583 129.661 530.156 132.392C529.729 135.123 529.175 137.384 528.492 139.176C525.079 138.749 520.769 138.28 515.564 137.768C510.444 137.341 505.111 137.128 499.564 137.128C492.396 137.128 485.441 137.384 478.7 137.896C471.959 138.408 464.663 138.835 456.812 139.176C458.007 133.544 458.476 128.808 458.22 124.968C457.964 121.128 456.812 117.757 454.764 114.856C452.716 111.869 449.644 109.053 445.548 106.408L443.5 109.48C447.169 111.955 449.857 114.557 451.564 117.288C453.271 119.933 454.167 123.048 454.252 126.632C454.423 130.131 453.953 134.312 452.844 139.176C450.028 138.835 446.572 138.408 442.476 137.896C438.465 137.384 433.687 137.128 428.14 137.128C422.935 137.128 417.729 137.384 412.524 137.896C407.404 138.408 403.095 138.835 399.596 139.176Z" fill="white"/>
</svg>
